# File created by Blade
# Date/Time:  Fri Jan 16 19:41:12 2015
# Frame Rate: 120.000 fps
#------------------------------------------------------
:FULLY-SPECIFIED
:DEGREES
1693
root 19.147770 35.510719 -23.074185 2.100440 -0.575714 -1.121329
Spine -4.907487 -1.770030 -6.633841
Head 3.414206 -9.755942 31.935799
LeftShoulder -6.054874 8.541428 5.339858
LeftArm -91.006394 52.471016 -156.085849
LeftForeArm -48.577385 -0.000000 110.315152
LeftHand -4.734835 -0.000000 -38.815541
LeftHandThumb1 -26.253704 0.000000 33.147579
RightShoulder -11.440337 -20.301119 13.303732
RightArm 17.317115 -16.373686 59.716507
RightForeArm -28.441865 -0.000000 27.555453
RightHand 0.866861 -0.000000 10.954252
RightHandThumb1 -24.326973 -0.000000 -32.862282
LeftUpLeg 5.307527 8.576371 0.907283
LeftLeg -5.459251 -0.000000 0.000000
LeftFoot -20.894600 28.497120 -11.910319
LeftToeBase 25.071604 -0.000000 -0.000000
RightUpLeg 3.124739 -8.403190 -1.923749
RightLeg -1.837235 -0.000000 0.000000
RightFoot -20.671027 -26.806283 14.826823
RightToeBase 24.391310 -0.000000 -0.000000
1694
root 19.160201 35.511209 -23.073494 2.098394 -0.520350 -1.113603
Spine -4.899441 -1.900073 -6.642536
Head 3.394690 -9.742612 32.074080
LeftShoulder -6.009340 8.500080 5.406471
LeftArm -91.017899 52.377297 -156.214529
LeftForeArm -48.048914 -0.000000 110.234933
LeftHand -4.789165 0.000000 -38.704509
LeftHandThumb1 -26.253704 0.000000 33.147579
RightShoulder -11.423048 -20.280812 13.323150
RightArm 17.413665 -16.548903 59.620822
RightForeArm -28.452249 -0.000000 27.659549
RightHand 0.786026 -0.000000 10.936361
RightHandThumb1 -24.326973 -0.000000 -32.862282
LeftUpLeg 5.305449 8.520441 0.879875
LeftLeg -5.463237 -0.000000 0.000000
LeftFoot -20.896383 28.486942 -11.917943
LeftToeBase 25.148784 -0.000000 -0.000000
RightUpLeg 3.146695 -8.393337 -1.948927
RightLeg -1.855248 -0.000000 0.000000
RightFoot -20.659468 -26.865224 14.847660
RightToeBase 24.351978 -0.000000 -0.000000
1695
root 19.172097 35.511572 -23.074205 2.095879 -0.457268 -1.093932
Spine -4.881361 -2.027891 -6.673320
Head 3.364053 -9.725875 32.206166
LeftShoulder -5.978255 8.450257 5.464869
LeftArm -90.947772 52.262968 -156.260318
LeftForeArm -47.655680 -0.000000 110.137485
LeftHand -4.879371 -0.000000 -38.537775
LeftHandThumb1 -26.253704 0.000000 33.147579
RightShoulder -11.428726 -20.273645 13.348190
RightArm 17.537711 -16.698997 59.536561
RightForeArm -28.468901 -0.000000 27.766062
RightHand 0.832634 -0.000000 10.806209
RightHandThumb1 -24.326973 -0.000000 -32.862282
LeftUpLeg 5.286688 8.485738 0.842909
LeftLeg -5.442004 -0.000000 0.000000
LeftFoot -20.883881 28.470052 -11.895076
LeftToeBase 25.088681 -0.000000 -0.000000
RightUpLeg 3.161323 -8.384455 -1.982193
RightLeg -1.864108 -0.000000 0.000000
RightFoot -20.693160 -26.931961 14.911078
RightToeBase 24.353179 -0.000000 -0.000000
1696
root 19.183579 35.512513 -23.071293 2.080602 -0.432876 -1.085155
Spine -4.857678 -2.116736 -6.693362
Head 3.284860 -9.746556 32.368513
LeftShoulder -5.968452 8.416001 5.505180
LeftArm -90.851245 52.159855 -156.259864
LeftForeArm -47.370791 -0.000000 110.025458
LeftHand -4.963123 -0.000000 -38.454077
LeftHandThumb1 -26.253704 0.000000 33.147579
RightShoulder -11.470863 -20.214327 13.389369
RightArm 17.647644 -16.857828 59.448544
RightForeArm -28.486565 0.000000 27.849011
RightHand 0.830009 -0.000000 10.803464
RightHandThumb1 -24.326973 -0.000000 -32.862282
LeftUpLeg 5.298482 8.494910 0.818993
LeftLeg -5.434010 -0.000000 0.000000
LeftFoot -20.887677 28.428862 -11.899344
LeftToeBase 25.138228 -0.000000 -0.000000
RightUpLeg 3.190106 -8.348571 -2.009134
RightLeg -1.867792 -0.000000 0.000000
RightFoot -20.697907 -26.978459 14.958401
RightToeBase 24.312178 -0.000000 -0.000000
1697
root 19.195457 35.512449 -23.070079 2.068974 -0.399507 -1.071532
Spine -4.836874 -2.212978 -6.719571
Head 3.261014 -9.751878 32.458395
LeftShoulder -5.980171 8.363944 5.544982
LeftArm -90.731955 52.059885 -156.190960
LeftForeArm -47.153254 0.000000 109.935914
LeftHand -4.953304 0.000000 -38.579006
LeftHandThumb1 -26.253704 0.000000 33.147579
RightShoulder -11.498144 -20.165712 13.424205
RightArm 17.718115 -16.980202 59.391637
RightForeArm -28.615158 -0.000000 28.005794
RightHand 0.787028 -0.000000 10.818120
RightHandThumb1 -24.326973 -0.000000 -32.862282
LeftUpLeg 5.293642 8.488417 0.788026
LeftLeg -5.408658 -0.000000 0.000000
LeftFoot -20.894729 28.420739 -11.892955
LeftToeBase 25.058874 -0.000000 -0.000000
RightUpLeg 3.206202 -8.325384 -2.039749
RightLeg -1.863051 -0.000000 0.000000
RightFoot -20.707723 -27.048182 14.875368
RightToeBase 24.509768 -0.000000 -0.000000
